<?xml version="1.0" encoding="UTF-8" standalone="no"?>
<!-- Created with Inkscape (http://www.inkscape.org/) -->

<svg
   xmlns:dc="http://purl.org/dc/elements/1.1/"
   xmlns:cc="http://creativecommons.org/ns#"
   xmlns:rdf="http://www.w3.org/1999/02/22-rdf-syntax-ns#"
   xmlns:svg="http://www.w3.org/2000/svg"
   xmlns="http://www.w3.org/2000/svg"
   xmlns:sodipodi="http://sodipodi.sourceforge.net/DTD/sodipodi-0.dtd"
   xmlns:inkscape="http://www.inkscape.org/namespaces/inkscape"
   width="64"
   height="64"
   viewBox="0 0 64.000001 64.000001"
   id="svg2"
   version="1.1"
   inkscape:version="0.91 r13725"
   sodipodi:docname="key.svg">
  <defs
     id="defs4" />
  <sodipodi:namedview
     id="base"
     pagecolor="#ffffff"
     bordercolor="#666666"
     borderopacity="1.0"
     inkscape:pageopacity="0.0"
     inkscape:pageshadow="2"
     inkscape:zoom="7.453125"
     inkscape:cx="32"
     inkscape:cy="32"
     inkscape:document-units="px"
     inkscape:current-layer="layer1"
     showgrid="false"
     units="px"
     inkscape:window-width="1366"
     inkscape:window-height="705"
     inkscape:window-x="-4"
     inkscape:window-y="-4"
     inkscape:window-maximized="1"
     inkscape:snap-page="true"
     inkscape:object-paths="true" />
  <metadata
     id="metadata7">
    <rdf:RDF>
      <cc:Work
         rdf:about="">
        <dc:format>image/svg+xml</dc:format>
        <dc:type
           rdf:resource="http://purl.org/dc/dcmitype/StillImage" />
        <dc:title></dc:title>
      </cc:Work>
    </rdf:RDF>
  </metadata>
  <g
     inkscape:label="Layer 1"
     inkscape:groupmode="layer"
     id="layer1"
     transform="translate(0,-988.36218)">
    <path
       style="color:#000000;font-style:normal;font-variant:normal;font-weight:normal;font-stretch:normal;font-size:medium;line-height:normal;font-family:sans-serif;text-indent:0;text-align:start;text-decoration:none;text-decoration-line:none;text-decoration-style:solid;text-decoration-color:#000000;letter-spacing:normal;word-spacing:normal;text-transform:none;direction:ltr;block-progression:tb;writing-mode:lr-tb;baseline-shift:baseline;text-anchor:start;white-space:normal;clip-rule:nonzero;display:inline;overflow:visible;visibility:visible;opacity:1;isolation:auto;mix-blend-mode:normal;color-interpolation:sRGB;color-interpolation-filters:linearRGB;solid-color:#000000;solid-opacity:1;fill:#000000;fill-opacity:1;fill-rule:nonzero;stroke:none;stroke-width:2;stroke-linecap:square;stroke-linejoin:miter;stroke-miterlimit:10;stroke-dasharray:none;stroke-dashoffset:0;stroke-opacity:1;color-rendering:auto;image-rendering:auto;shape-rendering:auto;text-rendering:auto;enable-background:accumulate"
       d="m 28.7241,996.50348 c -6.457097,-6.45026 -16.959176,-6.44468 -23.4094177,0.0123 -6.4503243,6.45732 -6.4430892,16.95762 0.014008,23.40792 4.2404505,4.2359 10.2203687,5.6675 15.6556417,4.3363 l 6.488735,6.4819 6.119818,-0.6151 -0.454353,6.2746 6.517963,6.5111 6.12144,-0.6168 -0.455974,6.2762 1.018128,1.017 11.454071,-1.3335 5.704893,-5.711 -30.422037,-30.3898 c 1.325951,-5.4372 -0.112461,-11.4151 -4.352915,-15.6512 z m -1.661021,1.66281 c 3.677871,3.67391 4.907037,8.84111 3.720467,13.53021 l -0.14094,0.4885 c -0.06944,0.24 -0.170865,0.4663 -0.252809,0.7013 l 0.02273,0.02 1.830012,1.7892 c 0.0051,-0.012 0.01116,-0.024 0.0162,-0.035 l 2.385374,2.3828 25.531127,25.5042 -3.466406,3.4701 -8.922428,1.0369 0.536538,-7.3765 -7.79461,0.7847 -4.968852,-4.9637 0.583282,-7.9885 -7.79786,0.7816 -2.638687,-2.6359 -2.218121,-2.2158 -1.830031,-1.828 c -0.212514,0.074 -0.417835,0.1656 -0.634452,0.2291 l -0.09087,0.026 c -4.792545,1.3708 -10.158469,0.1753 -13.9430428,-3.6053 -5.5584637,-5.5526 -5.5648743,-14.5255 -0.012245,-20.08399 5.5525428,-5.5584 14.5271538,-5.5632 20.0856178,-0.0118 z m -11.862347,11.87491 a 4.30521,4.30521 0 0 0 -6.0876837,0 4.30521,4.30521 0 0 0 0.00317,6.0893 4.30521,4.30521 0 0 0 6.0876797,0 4.30521,4.30521 0 0 0 -0.0032,-6.086 z"
       id="path3905"
       inkscape:connector-curvature="0" />
  </g>
</svg>
