<?xml version="1.0" encoding="UTF-8" standalone="no"?>
<!-- Created with Inkscape (http://www.inkscape.org/) -->

<svg
   xmlns:dc="http://purl.org/dc/elements/1.1/"
   xmlns:cc="http://creativecommons.org/ns#"
   xmlns:rdf="http://www.w3.org/1999/02/22-rdf-syntax-ns#"
   xmlns:svg="http://www.w3.org/2000/svg"
   xmlns="http://www.w3.org/2000/svg"
   xmlns:sodipodi="http://sodipodi.sourceforge.net/DTD/sodipodi-0.dtd"
   xmlns:inkscape="http://www.inkscape.org/namespaces/inkscape"
   width="64"
   height="64"
   viewBox="0 0 64.000001 64.000001"
   id="svg2"
   version="1.1"
   inkscape:version="0.91 r13725"
   sodipodi:docname="lock-open.svg">
  <defs
     id="defs4" />
  <sodipodi:namedview
     id="base"
     pagecolor="#ffffff"
     bordercolor="#666666"
     borderopacity="1.0"
     inkscape:pageopacity="0.0"
     inkscape:pageshadow="2"
     inkscape:zoom="5.2701552"
     inkscape:cx="42.002978"
     inkscape:cy="36.906469"
     inkscape:document-units="px"
     inkscape:current-layer="layer1"
     showgrid="false"
     units="px"
     inkscape:window-width="1366"
     inkscape:window-height="705"
     inkscape:window-x="-4"
     inkscape:window-y="-4"
     inkscape:window-maximized="1"
     inkscape:snap-page="true"
     inkscape:object-paths="true" />
  <metadata
     id="metadata7">
    <rdf:RDF>
      <cc:Work
         rdf:about="">
        <dc:format>image/svg+xml</dc:format>
        <dc:type
           rdf:resource="http://purl.org/dc/dcmitype/StillImage" />
        <dc:title></dc:title>
      </cc:Work>
    </rdf:RDF>
  </metadata>
  <g
     inkscape:label="Layer 1"
     inkscape:groupmode="layer"
     id="layer1"
     transform="translate(0,-988.36218)">
    <path
       style="color:#000000;font-style:normal;font-variant:normal;font-weight:normal;font-stretch:normal;font-size:medium;line-height:normal;font-family:sans-serif;text-indent:0;text-align:start;text-decoration:none;text-decoration-line:none;text-decoration-style:solid;text-decoration-color:#000000;letter-spacing:normal;word-spacing:normal;text-transform:none;direction:ltr;block-progression:tb;writing-mode:lr-tb;baseline-shift:baseline;text-anchor:start;white-space:normal;clip-rule:nonzero;display:inline;overflow:visible;visibility:visible;opacity:1;isolation:auto;mix-blend-mode:normal;color-interpolation:sRGB;color-interpolation-filters:linearRGB;solid-color:#000000;solid-opacity:1;fill:#000000;fill-opacity:1;fill-rule:nonzero;stroke:none;stroke-width:2;stroke-linecap:square;stroke-linejoin:miter;stroke-miterlimit:10;stroke-dasharray:none;stroke-dashoffset:0;stroke-opacity:1;color-rendering:auto;image-rendering:auto;shape-rendering:auto;text-rendering:auto;enable-background:accumulate"
       d="M 31.464844 0.61914062 C 22.520881 0.61914062 15.308594 7.9909648 15.308594 17.083984 L 15.308594 32.505859 L 5.71875 32.505859 L 5.71875 33.505859 L 5.71875 63.380859 L 59.892578 63.380859 L 59.892578 32.505859 L 50.302734 32.505859 L 50.302734 32.501953 L 48.302734 32.501953 L 48.302734 32.505859 L 17.308594 32.505859 L 17.308594 17.083984 C 17.308594 9.0430948 23.616213 2.6191406 31.464844 2.6191406 L 34.146484 2.6191406 C 41.995114 2.6191406 48.302734 9.0429348 48.302734 17.083984 L 48.302734 22.644531 L 50.302734 22.634766 L 50.302734 17.083984 C 50.302734 7.9911148 43.090446 0.61914062 34.146484 0.61914062 L 31.464844 0.61914062 z M 7.71875 34.505859 L 15.308594 34.505859 L 15.308594 34.507812 L 50.302734 34.507812 L 50.302734 34.505859 L 57.892578 34.505859 L 57.892578 61.380859 L 7.71875 61.380859 L 7.71875 34.505859 z M 32.804688 40.552734 A 4.0907168 4.1738558 0 0 0 28.712891 44.726562 A 4.0907168 4.1738558 0 0 0 31.128906 48.53125 L 31.128906 55.332031 L 34.480469 55.332031 L 34.480469 48.529297 A 4.0907168 4.1738558 0 0 0 36.896484 44.726562 A 4.0907168 4.1738558 0 0 0 32.804688 40.552734 z "
       transform="translate(0,988.36218)"
       id="rect3845" />
  </g>
</svg>
