<?xml version="1.0" encoding="UTF-8" standalone="no"?>
<!-- Created with Inkscape (http://www.inkscape.org/) -->

<svg
   xmlns:dc="http://purl.org/dc/elements/1.1/"
   xmlns:cc="http://creativecommons.org/ns#"
   xmlns:rdf="http://www.w3.org/1999/02/22-rdf-syntax-ns#"
   xmlns:svg="http://www.w3.org/2000/svg"
   xmlns="http://www.w3.org/2000/svg"
   xmlns:sodipodi="http://sodipodi.sourceforge.net/DTD/sodipodi-0.dtd"
   xmlns:inkscape="http://www.inkscape.org/namespaces/inkscape"
   width="64"
   height="64"
   viewBox="0 0 64.000001 64.000001"
   id="svg2"
   version="1.1"
   inkscape:version="0.91 r13725"
   sodipodi:docname="pen.svg">
  <defs
     id="defs4" />
  <sodipodi:namedview
     id="base"
     pagecolor="#ffffff"
     bordercolor="#666666"
     borderopacity="1.0"
     inkscape:pageopacity="0.0"
     inkscape:pageshadow="2"
     inkscape:zoom="7.453125"
     inkscape:cx="32"
     inkscape:cy="32"
     inkscape:document-units="px"
     inkscape:current-layer="layer1"
     showgrid="false"
     units="px"
     inkscape:window-width="1366"
     inkscape:window-height="705"
     inkscape:window-x="-4"
     inkscape:window-y="-4"
     inkscape:window-maximized="1"
     inkscape:snap-page="true"
     inkscape:object-paths="true" />
  <metadata
     id="metadata7">
    <rdf:RDF>
      <cc:Work
         rdf:about="">
        <dc:format>image/svg+xml</dc:format>
        <dc:type
           rdf:resource="http://purl.org/dc/dcmitype/StillImage" />
        <dc:title></dc:title>
      </cc:Work>
    </rdf:RDF>
  </metadata>
  <g
     inkscape:label="Layer 1"
     inkscape:groupmode="layer"
     id="layer1"
     transform="translate(0,-988.36218)">
    <path
       style="color:#000000;font-style:normal;font-variant:normal;font-weight:normal;font-stretch:normal;font-size:medium;line-height:normal;font-family:sans-serif;text-indent:0;text-align:start;text-decoration:none;text-decoration-line:none;text-decoration-style:solid;text-decoration-color:#000000;letter-spacing:normal;word-spacing:normal;text-transform:none;direction:ltr;block-progression:tb;writing-mode:lr-tb;baseline-shift:baseline;text-anchor:start;white-space:normal;clip-rule:nonzero;display:inline;overflow:visible;visibility:visible;opacity:1;isolation:auto;mix-blend-mode:normal;color-interpolation:sRGB;color-interpolation-filters:linearRGB;solid-color:#000000;solid-opacity:1;fill:#000000;fill-opacity:1;fill-rule:nonzero;stroke:none;stroke-width:2;stroke-linecap:square;stroke-linejoin:miter;stroke-miterlimit:4;stroke-dasharray:none;stroke-dashoffset:0;stroke-opacity:1;color-rendering:auto;image-rendering:auto;shape-rendering:auto;text-rendering:auto;enable-background:accumulate"
       d="M 49.625 1.828125 L 48.917969 2.5351562 L 25.224609 26.230469 L 26.857422 27.863281 L 10.152344 44.566406 L 9.4726562 45.236328 L 9.4785156 45.242188 L 4.7167969 50.001953 L 6.1855469 51.470703 L 2.9433594 61.294922 L 12.767578 58.052734 L 14.044922 59.330078 L 19.445312 53.929688 L 20.158203 53.226562 L 20.154297 53.220703 L 36.185547 37.189453 L 36.404297 37.408203 L 30.599609 43.210938 L 35.59375 48.205078 L 59.556641 24.244141 L 55.976562 20.664062 L 62.21875 14.421875 L 49.625 1.828125 z M 49.625 4.6582031 L 59.390625 14.421875 L 54.5625 19.25 L 53.855469 19.957031 L 37.818359 35.994141 L 28.052734 26.230469 L 49.625 4.6582031 z M 54.5625 22.078125 L 56.726562 24.244141 L 35.59375 45.376953 L 33.429688 43.210938 L 37.818359 38.822266 L 54.5625 22.078125 z M 28.271484 29.277344 L 34.771484 35.775391 L 18.75 51.796875 L 12.296875 45.251953 L 28.271484 29.277344 z M 10.882812 46.666016 L 17.335938 53.210938 L 14.09375 56.453125 L 7.59375 49.955078 L 10.882812 46.666016 z M 7.7695312 53.054688 L 11.183594 56.46875 L 6.0859375 58.152344 L 7.7695312 53.054688 z "
       transform="translate(0,988.36218)"
       id="rect3954" />
  </g>
</svg>
