<?xml version="1.0" encoding="UTF-8" standalone="no"?>
<!-- Created with Inkscape (http://www.inkscape.org/) -->

<svg
   xmlns:dc="http://purl.org/dc/elements/1.1/"
   xmlns:cc="http://creativecommons.org/ns#"
   xmlns:rdf="http://www.w3.org/1999/02/22-rdf-syntax-ns#"
   xmlns:svg="http://www.w3.org/2000/svg"
   xmlns="http://www.w3.org/2000/svg"
   xmlns:sodipodi="http://sodipodi.sourceforge.net/DTD/sodipodi-0.dtd"
   xmlns:inkscape="http://www.inkscape.org/namespaces/inkscape"
   width="64"
   height="64"
   viewBox="0 0 64.000001 64.000001"
   id="svg2"
   version="1.1"
   inkscape:version="0.91 r13725"
   sodipodi:docname="support.svg">
  <defs
     id="defs4" />
  <sodipodi:namedview
     id="base"
     pagecolor="#ffffff"
     bordercolor="#666666"
     borderopacity="1.0"
     inkscape:pageopacity="0.0"
     inkscape:pageshadow="2"
     inkscape:zoom="7.453125"
     inkscape:cx="32"
     inkscape:cy="32"
     inkscape:document-units="px"
     inkscape:current-layer="layer1"
     showgrid="false"
     units="px"
     inkscape:window-width="1366"
     inkscape:window-height="705"
     inkscape:window-x="-4"
     inkscape:window-y="-4"
     inkscape:window-maximized="1"
     inkscape:object-paths="true" />
  <metadata
     id="metadata7">
    <rdf:RDF>
      <cc:Work
         rdf:about="">
        <dc:format>image/svg+xml</dc:format>
        <dc:type
           rdf:resource="http://purl.org/dc/dcmitype/StillImage" />
        <dc:title></dc:title>
      </cc:Work>
    </rdf:RDF>
  </metadata>
  <g
     inkscape:label="Layer 1"
     inkscape:groupmode="layer"
     id="layer1"
     transform="translate(0,-988.36218)">
    <path
       style="color:#000000;font-style:normal;font-variant:normal;font-weight:normal;font-stretch:normal;font-size:medium;line-height:normal;font-family:sans-serif;text-indent:0;text-align:start;text-decoration:none;text-decoration-line:none;text-decoration-style:solid;text-decoration-color:#000000;letter-spacing:normal;word-spacing:normal;text-transform:none;direction:ltr;block-progression:tb;writing-mode:lr-tb;baseline-shift:baseline;text-anchor:start;white-space:normal;clip-rule:nonzero;display:inline;overflow:visible;visibility:visible;opacity:1;isolation:auto;mix-blend-mode:normal;color-interpolation:sRGB;color-interpolation-filters:linearRGB;solid-color:#000000;solid-opacity:1;fill:#000000;fill-opacity:1;fill-rule:nonzero;stroke:none;stroke-width:2;stroke-linecap:butt;stroke-linejoin:bevel;stroke-miterlimit:4;stroke-dasharray:none;stroke-dashoffset:0;stroke-opacity:1;color-rendering:auto;image-rendering:auto;shape-rendering:auto;text-rendering:auto;enable-background:accumulate"
       d="M 32.304688 0.15820312 C 21.765231 0.15820312 12.605045 6.0438903 7.8828125 14.693359 C 7.385693 14.562485 6.8675703 14.486328 6.3300781 14.486328 C 2.9576855 14.486328 0.21289062 17.231216 0.21289062 20.603516 L 0.21289062 31.298828 C 0.21289062 34.671128 2.9576855 37.417969 6.3300781 37.417969 C 9.257816 37.417969 11.711785 35.346194 12.308594 32.59375 C 13.59714 38.522057 17.446633 43.494659 22.650391 46.287109 C 14.055417 49.032275 7.042518 55.33386 3.3574219 63.462891 L 5.8574219 63.462891 C 9.781272 55.541527 17.162782 49.653153 26.033203 47.734375 C 26.601383 47.917442 27.17906 48.079338 27.767578 48.212891 C 27.916252 47.9065 28.087528 47.613687 28.273438 47.332031 C 28.303061 47.327987 28.331677 47.320363 28.361328 47.316406 A 19.481138 19.481138 0 0 1 28.291016 47.298828 C 28.501088 46.984178 28.733917 46.686571 28.994141 46.414062 C 20.362581 44.853963 13.824219 37.330041 13.824219 28.244141 C 13.824219 18.025341 22.087946 9.7636719 32.306641 9.7636719 C 42.525336 9.7636719 50.787109 18.025341 50.787109 28.244141 C 50.787109 36.545241 45.33474 43.555531 37.810547 45.894531 C 38.097348 46.104231 38.373064 46.330284 38.623047 46.583984 C 38.924054 46.851884 39.183512 47.135787 39.414062 47.429688 C 45.539577 45.154075 50.279995 40.036295 52.037109 33.683594 C 52.462381 34.683928 53.149229 35.544908 54.007812 36.189453 C 51.473568 43.120453 45.708106 48.475416 38.537109 50.478516 A 4.8972745 4.8972745 0 0 0 33.744141 46.558594 A 4.8972745 4.8972745 0 0 0 28.847656 51.455078 A 4.8972745 4.8972745 0 0 0 33.744141 56.351562 A 4.8972745 4.8972745 0 0 0 38.509766 52.558594 C 46.465114 50.528594 52.910646 44.701288 55.783203 37.117188 C 55.773681 37.114092 55.76536 37.108611 55.755859 37.105469 C 56.358412 37.304587 56.999642 37.416016 57.667969 37.416016 C 61.040361 37.416016 63.787109 34.671228 63.787109 31.298828 L 63.787109 20.603516 C 63.787109 17.231116 61.040361 14.484375 57.667969 14.484375 C 57.33181 14.484375 57.005184 14.519782 56.683594 14.572266 C 51.942874 5.9833156 42.799422 0.15820312 32.304688 0.15820312 z M 32.304688 2.1582031 C 41.9349 2.1582031 50.319865 7.4173531 54.761719 15.220703 C 52.851679 16.257556 51.550781 18.282516 51.550781 20.603516 L 51.550781 21.298828 C 48.699442 13.416213 41.165232 7.7636719 32.306641 7.7636719 C 22.742663 7.7636719 14.695768 14.340791 12.449219 23.212891 L 12.449219 20.603516 C 12.449219 18.477996 11.356336 16.602664 9.7050781 15.505859 C 14.103698 7.5497667 22.560799 2.1582031 32.304688 2.1582031 z M 55.703125 14.814453 C 55.687269 14.81986 55.672047 14.826498 55.65625 14.832031 C 55.672114 14.826589 55.687203 14.819769 55.703125 14.814453 z M 57.667969 16.484375 C 59.966956 16.484375 61.787109 18.304516 61.787109 20.603516 L 61.787109 31.298828 C 61.787109 33.597828 59.966956 35.416016 57.667969 35.416016 C 55.368982 35.416016 53.550781 33.597828 53.550781 31.298828 L 53.550781 20.603516 C 53.550781 18.304516 55.368982 16.484375 57.667969 16.484375 z M 6.3300781 16.486328 C 8.6290652 16.486328 10.449219 18.304616 10.449219 20.603516 L 10.449219 31.298828 C 10.449219 33.597728 8.6290652 35.417969 6.3300781 35.417969 C 4.0310911 35.417969 2.2128906 33.597728 2.2128906 31.298828 L 2.2128906 20.603516 C 2.2128906 18.304616 4.0310911 16.486328 6.3300781 16.486328 z M 49.025391 49.541016 C 48.380345 50.049416 47.715554 50.530516 47.027344 50.978516 C 52.065027 53.882894 56.156506 58.232936 58.748047 63.462891 L 61.240234 63.462891 C 58.627048 57.703189 54.357774 52.851946 49.025391 49.541016 z M 38.603516 50.900391 A 4.8972745 4.8972745 0 0 1 38.615234 50.996094 A 4.8972745 4.8972745 0 0 0 38.603516 50.900391 z M 10.287109 99.421875 C 16.00003 104.92264 23.759032 108.31445 32.306641 108.31445 C 40.854249 108.31445 48.611298 104.92264 54.324219 99.421875 L 50.9375 99.421875 C 45.859621 103.56135 39.376799 106.04492 32.306641 106.04492 C 25.236483 106.04492 18.752123 103.56135 13.673828 99.421875 L 10.287109 99.421875 z "
       transform="translate(0,988.36218)"
       id="path3790" />
  </g>
</svg>
